PathFileType	4	(X/Y/Z)	/Users/niels/Desktop/University/Third Semester/Perception and Action/Exam/Gymnastics Motion Tracking/Code for Gym Tracking/Analyzed Data/Webcam_Backflip/id4_2_pure_Sports2D/id4_2_pure_Sports2D_px_person00.trc
DataRate	CameraRate	NumFrames	NumMarkers	Units	OrigDataRate	OrigDataStartFrame	OrigNumFrames
29.8125	29.8125	11	22	m	29.8125	140	160
Frame#	Time	Hip			RHip			RKnee			RAnkle			RBigToe			RSmallToe			RHeel			LHip			LKnee			LAnkle			LBigToe			LSmallToe			LHeel			Neck			Head			Nose			RShoulder			RElbow			RWrist			LShoulder			LElbow			LWrist		
		X1	Y1	Z1	X2	Y2	Z2	X3	Y3	Z3	X4	Y4	Z4	X5	Y5	Z5	X6	Y6	Z6	X7	Y7	Z7	X8	Y8	Z8	X9	Y9	Z9	X10	Y10	Z10	X11	Y11	Z11	X12	Y12	Z12	X13	Y13	Z13	X14	Y14	Z14	X15	Y15	Z15	X16	Y16	Z16	X17	Y17	Z17	X18	Y18	Z18	X19	Y19	Z19	X20	Y20	Z20	X21	Y21	Z21	X22	Y22	Z22
140	4.696016771488469	0.960420216167794	-0.5762749862901652	0.0	0.9526727044280031	-0.5738580080676603	0.0	0.9538440921820422	-0.6838230137724524	0.0	0.9368329002006951	-0.7893789655113053	0.0	0.9741683967901759	-0.8076458522303233	0.0	0.9646476465095092	-0.8106792784347356	0.0	0.9303604850414069	-0.8037664845675395	0.0	0.9687154241297231	-0.5746069588813133	0.0	0.9597205728079192	-0.6838096565721163	0.0	0.94188668355707	-0.7859951914732906	0.0	0.9843360010799513	-0.8029167790105998	0.0	0.9771538839118225	-0.8013652282422499	0.0	0.9306364964550539	-0.7986156924851785	0.0	0.9731522430184723	-0.42428981843033314	0.0	0.9845101523205465	-0.3636009293768536	0.0	0.9909328646595282	-0.3965804309245496	0.0	0.9555107672416986	-0.4409263190114861	0.0	0.9130133805636749	-0.49114814715738464	0.0	0.9476206127640299	-0.5374092431748412	0.0	0.9759547154713267	-0.44435635561442216	0.0	0.9472643659019498	-0.4921392907631109	0.0	0.9742262477654965	-0.5369960299579426	0.0
141	4.729559748427672	0.9602094751000534	-0.574935278246765	0.0	0.9521388985845929	-0.5725307876969867	0.0	0.9534528252474119	-0.6825561433047298	0.0	0.9368161817233976	-0.787984349720574	0.0	0.9747299375668409	-0.806110471130436	0.0	0.9650250839054941	-0.8090205093074033	0.0	0.9302059557236217	-0.8022861237480082	0.0	0.9686499838250163	-0.5734813163393618	0.0	0.9596648166176076	-0.6825235631871353	0.0	0.9420281210698369	-0.784525059056896	0.0	0.9847203683389115	-0.8014146652133461	0.0	0.9777975691424279	-0.7996477625191517	0.0	0.9308223439454087	-0.797060238418101	0.0	0.9728375275216371	-0.4230836714770305	0.0	0.9844802644245747	-0.3625181938788746	0.0	0.9905743018302969	-0.39554147464571593	0.0	0.9548982489729081	-0.4399552371982748	0.0	0.9128006685285907	-0.49118839657137253	0.0	0.947735338197856	-0.5367116492410706	0.0	0.9760245484397805	-0.44355102017764564	0.0	0.9481257380705183	-0.49197637248962917	0.0	0.974361875129417	-0.5360164188883262	0.0
142	4.763102725366876	0.9599016098181657	-0.5728125285884209	0.0	0.9515493628378849	-0.5704855978113447	0.0	0.9531237693127297	-0.6805813291305214	0.0	0.9367996967775014	-0.7858454868222001	0.0	0.9751548913727864	-0.803903033077299	0.0	0.9652809525059253	-0.8067209783588574	0.0	0.9301384369868614	-0.8001803297040183	0.0	0.9685236996860734	-0.571541170399299	0.0	0.9595721151239125	-0.6805066095573156	0.0	0.9421652626924094	-0.7823225527148888	0.0	0.9848215368514164	-0.7993484167856943	0.0	0.978272109779197	-0.797334527431363	0.0	0.9310228517078115	-0.794913446881858	0.0	0.972433064197511	-0.42121730113457395	0.0	0.9843461290925627	-0.3606182237388059	0.0	0.9898694907515033	-0.39370673613105894	0.0	0.9543190418590242	-0.43818041535170604	0.0	0.9130213008569248	-0.4902772284680367	0.0	0.9482484903273909	-0.5351789026035374	0.0	0.9762983057745058	-0.4419240131320924	0.0	0.9492257227964709	-0.4908628838323181	0.0	0.9745888925161938	-0.5340996516986007	0.0
143	4.796645702306079	0.9595016513218806	-0.5700943691080868	0.0	0.9509259803657886	-0.5679419124146053	0.0	0.9528774870617552	-0.6782104428295992	0.0	0.9367694398285785	-0.7832895512345567	0.0	0.9752814521131236	-0.8013487417602094	0.0	0.9652335131207809	-0.804173904807724	0.0	0.9301625120272888	-0.7977667950628953	0.0	0.9682971503713372	-0.5689863933926809	0.0	0.9593781239066963	-0.6780730091306632	0.0	0.9421953518075277	-0.7797325837206356	0.0	0.9845177802722038	-0.7970763275024083	0.0	0.9784106262142266	-0.7948379375958734	0.0	0.9311181055789246	-0.7924944411665695	0.0	0.9719492239219634	-0.4189442736189339	0.0	0.9840733565072266	-0.3580903273305748	0.0	0.9888833303291994	-0.3912598606117474	0.0	0.9537971177176341	-0.43583527853431797	0.0	0.9136997935677799	-0.4885656773870017	0.0	0.9490424648553581	-0.533086087297532	0.0	0.9768060425169358	-0.4396936092164502	0.0	0.9504869488731768	-0.4889405351981956	0.0	0.9749370188558781	-0.5316522249416329	0.0
144	4.830188679245282	0.9590227686696922	-0.5670320601063197	0.0	0.9503109745092546	-0.565186600345668	0.0	0.9527284029749421	-0.6757527214057324	0.0	0.9367441751942862	-0.780625158347303	0.0	0.9749217739853816	-0.7988097349593325	0.0	0.9647000296207172	-0.8017765840564973	0.0	0.9302250346065157	-0.7953691468920183	0.0	0.9678875092004879	-0.5661073657732776	0.0	0.9590113144412539	-0.6755493329545517	0.0	0.9420312765068876	-0.7770903546820032	0.0	0.9836947764154208	-0.7949883120172551	0.0	0.9780584109849385	-0.7925696018555906	0.0	0.9309911713895285	-0.7901458385993656	0.0	0.9713827060317969	-0.41655684998088893	0.0	0.9836822856994717	-0.3551469981738339	0.0	0.9877559777017172	-0.3884172792996256	0.0	0.9533532452104357	-0.43320025363888104	0.0	0.9147673516265038	-0.486264642164147	0.0	0.9499289943365813	-0.530776290265465	0.0	0.9774653233911256	-0.4371145691161275	0.0	0.951687425761698	-0.4864325075314121	0.0	0.975311377223101	-0.5291987662424299	0.0
145	4.863731656184486	0.9584908516770201	-0.5639286986516275	0.0	0.9497371974198796	-0.5625259216269171	0.0	0.9526678438357556	-0.6734705849449565	0.0	0.9367535504297205	-0.7780991550382995	0.0	0.9739703255486036	-0.7965796154789644	0.0	0.9636001601754196	-0.7998114225533278	0.0	0.9302587557895039	-0.7932364706952296	0.0	0.9672109026730907	-0.5632397694138733	0.0	0.9584442362817815	-0.6732272851242094	0.0	0.941659664643138	-0.7746401192492777	0.0	0.9823454932370888	-0.7933436152492359	0.0	0.9771795823195992	-0.7908009595083332	0.0	0.9306040598316656	-0.7881095139031751	0.0	0.9707500220176194	-0.41431601086247005	0.0	0.9832164554507821	-0.35203284800393986	0.0	0.9866287664228172	-0.38543102338352647	0.0	0.9530122074464619	-0.43056381191027104	0.0	0.916125486854511	-0.48369019195751	0.0	0.9507634440338404	-0.5286313805973557	0.0	0.978152382873509	-0.4344620816526739	0.0	0.9525980589411663	-0.48366279892160174	0.0	0.9755783292697541	-0.5271972201978392	0.0
146	4.897274633123689	0.957938868198373	-0.5610869219449378	0.0	0.9492210753963991	-0.5602014139189732	0.0	0.952649801656011	-0.671560203479514	0.0	0.9367922345362507	-0.7759135661584657	0.0	0.9725434770791723	-0.794814145993904	0.0	0.9620703998628415	-0.7983873771279402	0.0	0.9302240525640043	-0.7915176372437799	0.0	0.9662746974728946	-0.5606883959372203	0.0	0.9577355722139663	-0.6713155968262633	0.0	0.9411738054991046	-0.7725273568382566	0.0	0.9806787595655269	-0.7921554548277758	0.0	0.9759470909436012	-0.7895717467815452	0.0	0.9300467545885692	-0.7864678948240874	0.0	0.9701065923197376	-0.4124002350486646	0.0	0.9826883719186833	-0.34906372757403514	0.0	0.9856079363359188	-0.3826132268038049	0.0	0.9527885795928878	-0.4282052455179037	0.0	0.9176888334650865	-0.48127864568831336	0.0	0.9515172457975936	-0.5270183765574522	0.0	0.9787888397458343	-0.43202906887096143	0.0	0.9531761874325355	-0.48105743985744454	0.0	0.9756821079776964	-0.5258786467885116	0.0
147	4.930817610062892	0.9573865602079066	-0.5588029601960991	0.0	0.9487628222848645	-0.5584113286033143	0.0	0.9525970247034667	-0.6701720845950221	0.0	0.9368116926575546	-0.7742573810532305	0.0	0.9710171939339323	-0.7935797099922068	0.0	0.9604879786783045	-0.7974987852912558	0.0	0.9301141665198928	-0.7903175772498777	0.0	0.9651949729831384	-0.5587294634421424	0.0	0.9569854507667994	-0.6699413968456418	0.0	0.9407239627263821	-0.7708787564425168	0.0	0.9790786750952799	-0.7913046798273351	0.0	0.9747063859111668	-0.7887889760946095	0.0	0.929489319178985	-0.7852483206813626	0.0	0.9695274499343914	-0.4109163472802637	0.0	0.9820643902812801	-0.34661425109475186	0.0	0.9847745971212049	-0.38031051504870916	0.0	0.9526617612195178	-0.4263704947110895	0.0	0.9193903251174577	-0.4795022075959919	0.0	0.9522393557383545	-0.5262106193647964	0.0	0.9793420389071599	-0.43010470079893837	0.0	0.9535771943222043	-0.4790830498199281	0.0	0.9756515202688745	-0.5252749281746251	0.0
148	4.964360587002096	0.9568189234010017	-0.5573684364524403	0.0	0.9483248778562093	-0.5573814596629857	0.0	0.9524204514368977	-0.6694422604401522	0.0	0.9367556021901443	-0.7733156029382627	0.0	0.9698861082939192	-0.7929559533230718	0.0	0.9593165362645665	-0.7971579156752561	0.0	0.92993530251566	-0.7897626963207641	0.0	0.9641170441139041	-0.5576387727119562	0.0	0.9562504873736899	-0.6692088390135204	0.0	0.9404224158447331	-0.7698712068617619	0.0	0.9779119041319819	-0.7907987723673553	0.0	0.9738149491261524	-0.7884302804676862	0.0	0.9290879738306292	-0.7845711440352551	0.0	0.9690679990763957	-0.4099565800237723	0.0	0.9812945892382136	-0.345028706338783	0.0	0.984163061055293	-0.37881075743474873	0.0	0.9525760125208015	-0.4252452442778837	0.0	0.9211678635808889	-0.47870284715065076	0.0	0.9529538339086034	-0.5263360837776059	0.0	0.9797939878371904	-0.42891969243805766	0.0	0.9539836463495476	-0.47809943642548025	0.0	0.9755102526753596	-0.5253809549815314	0.0
149	4.997903563941299	0.9562002930186215	-0.5569780854443729	0.0	0.9478386203604897	-0.5572925019392995	0.0	0.9520521695588383	-0.6694577063867345	0.0	0.9366013546457493	-0.7732214059435465	0.0	0.9694550779552092	-0.7930423657296102	0.0	0.95881051626298	-0.797426967241898	0.0	0.9296941814364122	-0.789963160675911	0.0	0.9631406436159196	-0.5575939660702274	0.0	0.9555273350917136	-0.6692025997201483	0.0	0.94028770250394	-0.769670182213379	0.0	0.9773285568418147	-0.7908210523422888	0.0	0.9734387930468974	-0.7885884898610341	0.0	0.9289186341227758	-0.7846104514612334	0.0	0.9687402041285154	-0.4096267057231467	0.0	0.9803544241403448	-0.34451083446703984	0.0	0.9837259383791234	-0.37827207407320235	0.0	0.9524707875019837	-0.4249437001869856	0.0	0.922949608158155	-0.4789955619094262	0.0	0.9536115091208729	-0.5273939094073299	0.0	0.9801382560908966	-0.4286055794643056	0.0	0.9544747787625675	-0.4782483322628185	0.0	0.9752421155567983	-0.5262529410178548	0.0
150	5.031446540880502	0.9555240695542772	-0.5576201795768863	0.0	0.9472531178253518	-0.5581396353259287	0.0	0.9514795042470511	-0.6701846015674358	0.0	0.9363673661159118	-0.7739763876620618	0.0	0.9696060378088013	-0.7938710202829161	0.0	0.958835198834829	-0.7983298403459774	0.0	0.9293928808128575	-0.790912285509545	0.0	0.9623195415681185	-0.5585466717428732	0.0	0.9548119756362416	-0.6699152591000773	0.0	0.9402504971596698	-0.7703126574103094	0.0	0.9772002338232586	-0.7915225181627272	0.0	0.9734467704105431	-0.7893428729419566	0.0	0.9289558826099397	-0.7854219700777988	0.0	0.9685194271249179	-0.41001118526688746	0.0	0.979281171160333	-0.3450651944240667	0.0	0.9833574698306978	-0.3787114735849562	0.0	0.9523122928205824	-0.42550349159024503	0.0	0.9246305289436009	-0.480311232397562	0.0	0.9541284669846863	-0.5292885252845789	0.0	0.9803922004133573	-0.42918788362273197	0.0	0.9550403609071657	-0.47948033969128945	0.0	0.9748364039886477	-0.5279443962922737	0.0
